<svg width="49" height="24" viewBox="0 0 49 24" fill="none" xmlns="http://www.w3.org/2000/svg">
<g clip-path="url(#clip0_352_221)">
<path d="M48.5688 21.5845C45.2589 15.3584 38.7174 17.9622 30.18 21.7276C21.3136 25.6383 6.53351 25.8694 6.94875 10.374C9.42814 18.269 18.5573 20.4697 25.9153 18.0787C24.0858 17.5756 22.4469 16.7084 21.1932 15.0987C20.1862 13.8081 19.8692 12.088 20.2885 10.4946C22.9324 0.427477 37.5379 -0.756775 35.0545 17.0827L34.1598 23.9407C34.1478 24.0266 34.0234 24.0143 34.0274 23.9264C34.4407 15.8698 33.8028 11.3578 31.3234 9.3881C28.9222 7.4798 25.1369 8.42066 22.9183 11.4519C25.2453 13.262 30.5992 13.9758 34.6312 13.444C43.4194 12.2884 50.9037 9.20198 48.5708 21.5845H48.5688Z" fill="#EBF7F6"/>
<path d="M35.3333 13.3376C35.3333 11.8098 35.1909 10.4517 34.906 9.31035C32.7175 -0.0511608 22.4629 2.22939 20.2985 10.5007C20.2503 10.7196 20.2042 10.9609 20.1561 11.2043C19.9655 12.587 20.3226 13.9942 21.2032 15.1089C22.4409 16.7104 24.0818 17.5837 25.9132 18.0685C28.5772 17.0745 31.2892 15.9107 33.8589 14.9146C34.3343 14.7203 34.8097 14.526 35.2871 14.3562C38.4746 13.1679 41.4254 12.27 43.8286 12.2454C41.4736 12.2454 38.5228 12.8999 35.3353 13.3376H35.3333ZM22.9143 11.4457C23.1049 11.1798 23.2954 10.9609 23.5081 10.7175C25.7688 8.26723 29.1228 7.66181 31.3113 9.38399C31.6202 9.62738 31.9291 9.94236 32.1919 10.2819C32.8098 11.0816 33.2631 12.1738 33.572 13.5319C29.7186 13.8469 25.0547 13.1188 22.9143 11.4457Z" fill="url(#paint0_linear_352_221)"/>
<path d="M48.2578 13.272C41.949 4.74293 32.4647 2.42761 19.3697 9.61084C14.3869 12.3434 1.28583 16.9147 0 2.79577C2.29484 9.10564 11.4281 7.99298 20.6736 3.36642C36.3022 -4.45495 48.6349 2.3867 48.2578 13.272Z" fill="#EBF7F6"/>
</g>
<defs>
<linearGradient id="paint0_linear_352_221" x1="27.6604" y1="-0.812026" x2="36.5745" y2="25.6948" gradientUnits="userSpaceOnUse">
<stop stop-color="#232020"/>
<stop offset="0.05" stop-color="#403F3F"/>
<stop offset="0.15" stop-color="#7C7F7F"/>
<stop offset="0.25" stop-color="#ABB3B2"/>
<stop offset="0.33" stop-color="#CED8D7"/>
<stop offset="0.4" stop-color="#E3EEED"/>
<stop offset="0.44" stop-color="#EBF7F6"/>
<stop offset="0.48" stop-color="#E4F0EF"/>
<stop offset="0.54" stop-color="#D3DDDC"/>
<stop offset="0.61" stop-color="#B6BEBD"/>
<stop offset="0.69" stop-color="#8E9392"/>
<stop offset="0.78" stop-color="#5B5C5C"/>
<stop offset="0.86" stop-color="#232020"/>
</linearGradient>
<clipPath id="clip0_352_221">
<rect width="49" height="24" fill="white"/>
</clipPath>
</defs>
</svg>
